<svg xmlns="http://www.w3.org/2000/svg" viewBox="0 0 64 64" role="img" aria-label="Weather Blog">
  <defs>
    <linearGradient id="sky" x1="32" y1="2" x2="32" y2="62" gradientUnits="userSpaceOnUse">
      <stop stop-color="#09172f" />
      <stop offset="0.58" stop-color="#285683" />
      <stop offset="1" stop-color="#79a2bd" />
    </linearGradient>
    <radialGradient id="sun" cx="0" cy="0" r="1" gradientTransform="translate(45 18) rotate(90) scale(10)" gradientUnits="userSpaceOnUse">
      <stop stop-color="#fff8db" />
      <stop offset="0.55" stop-color="#ffe6a8" />
      <stop offset="1" stop-color="#ffad67" />
    </radialGradient>
  </defs>

  <rect x="2" y="2" width="60" height="60" rx="15" fill="url(#sky)" />
  <circle cx="45" cy="18" r="9" fill="url(#sun)" />
  <circle cx="16" cy="15" r="1.4" fill="#d9edff" opacity="0.9" />
  <circle cx="24" cy="11" r="1" fill="#d9edff" opacity="0.65" />

  <path d="M3 53 17 39l7 6 11-15 9 11 6-7 12 19v9H2z" fill="#173b62" />
  <path d="m17 39 7 6 11-15 9 11 6-7 12 19H3z" fill="#315f82" />
  <path d="m27.5 40.2 7.5-10.2 6.7 8.2-4.4-2.1-2.3 3.4-2.4-2.1z" fill="#edf6f7" />
  <path d="m45.2 39.6 4.8-5.6 4.5 7.1-3-1.6-1.7 2.2-1.7-2z" fill="#dcecef" />
  <path d="M5 53c12-5 21-5 31-1 10 3 18 2 26-2v12H2v-7z" fill="#0d2a4b" opacity="0.92" />
  <rect x="2.75" y="2.75" width="58.5" height="58.5" rx="14.25" fill="none" stroke="#d9edff" stroke-opacity="0.22" stroke-width="1.5" />
</svg>
