<svg xmlns="http://www.w3.org/2000/svg" width="256" height="256" viewBox="0 0 256 256" fill="none" role="img" aria-label="Weather Blog">
  <defs>
    <linearGradient id="logo-sky" x1="128" y1="8" x2="128" y2="248" gradientUnits="userSpaceOnUse">
      <stop stop-color="#07162f" />
      <stop offset="0.54" stop-color="#285b89" />
      <stop offset="1" stop-color="#8ab5ca" />
    </linearGradient>
    <radialGradient id="logo-sun" cx="0" cy="0" r="1" gradientTransform="translate(181 72) rotate(90) scale(42)" gradientUnits="userSpaceOnUse">
      <stop stop-color="#fffdf0" />
      <stop offset="0.5" stop-color="#ffe9aa" />
      <stop offset="1" stop-color="#ffad64" />
    </radialGradient>
    <linearGradient id="logo-snow" x1="139" y1="119" x2="139" y2="174" gradientUnits="userSpaceOnUse">
      <stop stop-color="#fff" />
      <stop offset="1" stop-color="#d8edf3" />
    </linearGradient>
    <clipPath id="logo-clip">
      <rect x="8" y="8" width="240" height="240" rx="58" />
    </clipPath>
  </defs>

  <g clip-path="url(#logo-clip)">
    <rect x="8" y="8" width="240" height="240" rx="58" fill="url(#logo-sky)" />
    <circle cx="181" cy="72" r="36" fill="url(#logo-sun)" />
    <circle cx="181" cy="72" r="43" stroke="#ffe8a8" stroke-opacity="0.2" stroke-width="4" />
    <circle cx="57" cy="58" r="5" fill="#e8f6ff" />
    <circle cx="92" cy="39" r="3.5" fill="#e8f6ff" fill-opacity="0.76" />
    <circle cx="35" cy="93" r="2.5" fill="#e8f6ff" fill-opacity="0.58" />

    <path d="M-4 220 67 151l29 25 45-63 38 43 25-28 59 89v39H-4v-36Z" fill="#315f82" />
    <path d="m96 176 45-63 38 43 25-28 59 89-69-30-39 9-45-11-54 12-60 23 71-69 29 25Z" fill="#1c466d" />
    <path d="m111 155 30-42 27 31-18-7-9 14-10-9-10 15-10-2Z" fill="url(#logo-snow)" />
    <path d="m184 150 20-22 19 29-12-6-7 9-7-8-7 4-6-6Z" fill="#e4f1f3" />
    <path d="M-6 214c48-20 88-22 130-6 43 16 86 10 140-10v58H-6v-42Z" fill="#0b294a" fill-opacity="0.94" />
    <path d="M-4 227c52-13 91-11 130 1 41 13 84 7 138-10" stroke="#8eb6c9" stroke-opacity="0.22" stroke-width="5" />
  </g>

  <rect x="11" y="11" width="234" height="234" rx="55" stroke="#e2f3ff" stroke-opacity="0.3" stroke-width="6" />
</svg>
